<svg xmlns="http://www.w3.org/2000/svg" width="120" height="54" viewBox="0 0 120 54">
    <g fill="#472276" fill-rule="nonzero">
        <path d="M39.866 31.783h.026c0-.026-.026-.026-.026 0z"/>
        <path d="M52.332 27C50.79 17.1 42.976 9.309 33.055 7.791c-5.99-.925-10.873.052-14.986 2.675-1.413-.926-3.726-1.363-5.14-3.497-.566-.823.154-2.212.642-2.803.772-1.003 1.774-2.006 1.106-3.215C13.39-1.44 10.1 2.983 9.664 3.6l-.668-.18c-.488.231-1.13 1.62-1.08 2.366.103 0 .489.18.489.18L8.174 7.25c-.155.052-.771.078-.771.078-.232.36.025 2.16.488 2.417 0 0 .771-.206.797-.206.154.309.488.9.745 1.311 0 0-.72.463-.694.592.052.437 1.131 1.62 1.62 1.826.282-.232.693-.54.77-.592.206.36 1.106 1.08 1.928 1.646a23.121 23.121 0 0 0-6.811 15.583c2.133-1.08 4.42-1.569 6.606-2.032.72-.154 1.413-.308 2.082-.463.385-3.548 1.516-6.968 3.393-9.797.334.077.668.257 1.002.515 1.44 1.131 2.622 3.754 2.133 6.094-.128.154-.231.334-.385.488-4.55 5.478-14.908 1.62-19.663 10.723C-1.542 41.091.9 49.963 7.788 50.837c3.599.463 4.755.309 7.942-1.311A23.168 23.168 0 0 0 29.43 54c14.009 0 25.164-12.497 22.902-27zM13.366 13.937c-.797-.488-1.8-1.26-2.21-1.8 0 0-.669.463-.823.643-.309-.18-1.028-.926-1.234-1.286 0 0 .36-.257.745-.565-.205-.283-.95-1.415-1.002-1.698a12.12 12.12 0 0 1-.823.155c-.385-.257-.488-1.466-.334-1.8.232-.052.54-.052.823-.052-.052-.797.283-1.928.308-1.903l-.514-.282c.129-.283.514-1.389.746-1.595.154.077.72.129.925.335.771-1.543 4.215-4.269 2.827-1.26-.282.642-.77 1.182-1.054 1.671-1.388 2.546.669 5.04 4.062 7.329-.412.411-2.057 1.748-2.442 2.108zm8.07 6.763c-.436-1.183-1.13-2.211-1.953-2.854a3.2 3.2 0 0 0-1.002-.54c.282-.412.59-.797.9-1.183.128-.129.256-.232.385-.36 2.776 2.16 3.855 4.757 2.082 7.791.077-.951-.077-1.928-.411-2.854zM7.377 46.389a4.306 4.306 0 0 1-.796-2.238c.18.052.411.052.617.052h.026c.925 0 2.005-.334 2.776-.669a23.868 23.868 0 0 0 3.161 3.832c-2.287 2.263-4.78.463-5.783-.977zm24.136 3.394c-4.703 0-8.379-2.006-11.103-4.732 4.857-6.351 12.183-6.197 15.756-4.371 1.44.746 3.033 1.491 3.11 3.497.103 2.366-3.239 5.606-7.763 5.606zm13.546-9.334c-.9-1.749-2.75-3.883-3.958-4.089.025.977-.489 1.774-1.388 1.723-2.468-1.183-7.557-2.417-13.829-.154-3.88 1.465-6.143 4.062-7.042 5.271a20 20 0 0 1-1.877-3.111c.026-.026.052-.026.052-.026l1.49-1.312.617-.514-.925-1.106c.72-1.337 2.75-2.545 2.853-2.417.103.129.257.36.386.566-.052.54-.052.514-.155 1.054 1.44-1.98 5.81-4.705 6.35-4.757l-1.337-.051c0-.232-.129-.695-.18-.977 1.542-1.44 4.344-1.209 5.089-1.132.026.154.026.36.051.566 0 0 0-.077-.462.591 2.57-.411 4.06-.308 6.683.232-.335-.36-.669-.772-.669-.772 0-.103.077-.617.077-.72 2.725-.488 4.19.489 5.141 1.466-.026.129-.154.257-.72.823l-1.388.128c.386.103 3.727 2.469 4.498 3.78.952-.025 1.748-.025 2.16 0a26.944 26.944 0 0 1-1.517 4.938zm1.645-5.786c-.488.077-1.696.283-2.133.411-.489-.643-2.134-2.108-3.11-2.725.282-.335 1.028-1.183 1.105-1.569l.026-.129-.103-.102c-.463-.463-1.106-1.055-2.057-1.44-1.105-.438-2.416-.515-3.88-.232l-.232.052v.231c0 .129-.154.849-.18 1.054-1.748-.308-3.059-.36-4.318-.231-.052-.36-.129-.772-.129-.797l-.025-.18-.18-.026c-.155-.026-3.933-.669-5.86 1.363l-.104.103.052.154c.128.489.283 1.029.283 1.26-1.697.951-3.368 2.417-3.959 3.189-.231-.386-.745-1.183-.745-1.183l-.103.077c-2.108 1.183-3.059 2.88-3.496 3.163.103.128.206.231.283.308.206.257.386.489.668.797-.23.386-1.285 1.055-1.722 1.415a21.121 21.121 0 0 1-1.285-3.78c-.36.154-.694.283-1.002.411-2.108.823-4.575 2.52-6.04 4.5.385.823.822 1.62 1.31 2.392-.668.282-1.619.591-2.467.591-.232 0-.437-.026-.617-.077.283-3.343 4.395-6.609 7.634-7.894 3.701-1.44 9.33-4.526 11.36-9.566.926-2.314 2.365-8.46-2.775-13.063a27.8 27.8 0 0 1 .694-.437c2.236-1.26 4.883-1.954 7.968-1.903 12.08.154 16.887 12.96 15.14 23.863z"/>
        <ellipse cx="2.081" cy="1.622" rx="1.748" ry="1.131" transform="rotate(-9.77 205.759 -147.58)"/>
        <path d="M30.227 32.374s-.025 0-.077.026c-.051 0-.103.026-.18.051-.077.026-.18.052-.283.103-.102.052-.23.103-.334.155a3.119 3.119 0 0 0-.36.257 2.055 2.055 0 0 0-.334.334 1.804 1.804 0 0 0-.257.411c-.077.155-.103.309-.128.463 0 .155.025.309.077.437.026.078.077.129.128.206.052.052.103.129.155.18.128.103.257.206.385.283.129.077.283.154.411.206.129.051.257.103.36.128.103.026.206.077.283.103.077.026.154.052.18.052a.199.199 0 0 0 .077.025h-.617c-.128 0-.257-.025-.411-.051-.154-.026-.309-.077-.488-.129-.18-.051-.335-.154-.515-.283a2.038 2.038 0 0 1-.437-.488 1.532 1.532 0 0 1-.154-.694c0-.232.077-.463.18-.643a1.73 1.73 0 0 1 .18-.283c.052-.077.129-.154.206-.232a1.6 1.6 0 0 1 .462-.36c.155-.102.309-.154.463-.205.154-.052.283-.077.411-.077.129-.026.232 0 .309 0h.128c.026 0 .052 0 .077.025h.103z"/>
        <ellipse cx="1.873" cy="1.605" rx="1.388" ry="1" transform="rotate(-37.042 65.121 -13.901)"/>
        <path d="M23.287 35.46s-.025 0-.051.026c-.026.025-.077.051-.129.103a1.118 1.118 0 0 0-.154.18c-.051.077-.128.154-.18.231-.051.103-.128.206-.154.309-.051.102-.077.231-.103.36-.026.128-.026.257-.026.385 0 .129.026.257.078.36a.804.804 0 0 0 .23.283c.052.026.104.077.155.103.052.026.103.051.18.077.129.026.257.052.36.052h.36c.103 0 .205-.026.308-.026.103-.026.18-.026.232-.052.077 0 .128-.025.154-.025h.051s-.026 0-.051.025c-.026.026-.077.052-.129.078-.025.025-.051.025-.103.051-.025.026-.077.026-.128.051a.867.867 0 0 1-.309.103c-.128.026-.257.077-.385.077a1.397 1.397 0 0 1-.463 0 1.002 1.002 0 0 1-.488-.205 1.005 1.005 0 0 1-.36-.437 1.308 1.308 0 0 1-.103-.515c0-.077 0-.18.026-.257.026-.077.026-.154.051-.231a1.99 1.99 0 0 1 .18-.412c.077-.128.154-.231.257-.308a1.8 1.8 0 0 1 .257-.206c.077-.051.155-.103.232-.129.025-.025.051-.025.077-.025.025 0 .051-.026.077-.026h.051z"/>
        <ellipse cx=".939" cy="1.132" rx="1" ry="1" transform="rotate(-67.752 8.63 -3.702)"/>
        <path d="M9.536 5.246v.025c0 .026 0 .052-.026.078 0 .025-.025.077-.025.128v.154c0 .052 0 .103.025.18.026.052.026.129.052.18.025.052.051.129.102.18a.682.682 0 0 0 .155.129c.051.026.103.051.18.051h.102c.026 0 .052-.025.103-.025l.154-.077c.052-.026.103-.078.129-.103.051-.026.077-.077.103-.103l.077-.077.051-.052.026-.025v.025c0 .026-.026.052-.026.077 0 .026-.025.026-.025.052s-.026.051-.026.051c-.026.052-.051.077-.077.129a.682.682 0 0 1-.129.154.461.461 0 0 1-.18.129 3.235 3.235 0 0 1-.257.077.434.434 0 0 1-.257-.077.693.693 0 0 1-.205-.18c-.026-.026-.052-.077-.077-.103-.026-.026-.026-.077-.052-.103a.751.751 0 0 1-.051-.231v-.206c0-.052.025-.129.051-.154.026-.052.026-.078.052-.129 0-.026.025-.026.025-.051-.025-.052 0-.078.026-.103-.026.025 0 0 0 0z"/>
        <g>
            <ellipse cx=".981" cy="1.207" rx="1" ry="1" transform="rotate(-16.69 29.145 -25.986)"/>
            <path d="M9.33 8.614l.026.026c0 .026.026.051.051.077.026.026.052.077.078.129.025.051.077.103.128.154.051.051.103.103.18.154.051.052.129.077.206.129l.231.077h.231c.077-.026.155-.051.206-.103l.077-.077a.195.195 0 0 0 .051-.103l.078-.231c.025-.077.025-.155.05-.232 0-.077.027-.128.027-.205v-.155-.103-.025.025c0 .026.025.052.025.103 0 .026.026.052.026.077 0 .026.026.052.026.078a.501.501 0 0 1 .025.205v.257c0 .103-.025.18-.077.283a.666.666 0 0 1-.18.283.7.7 0 0 1-.308.154.733.733 0 0 1-.334 0c-.052 0-.103-.025-.154-.051-.052-.026-.103-.051-.129-.077-.077-.052-.154-.103-.231-.18a.4.4 0 0 1-.154-.206c-.052-.077-.078-.128-.103-.18-.026-.051-.026-.103-.052-.154V8.69 8.64v-.026z"/>
        </g>
        <g>
            <ellipse cx="1.253" cy="1.366" rx="1" ry="1.003" transform="rotate(-37.888 20.511 -9.603)"/>
            <path d="M11.515 11.546l.026.025.077.078a.56.56 0 0 0 .128.102c.052.026.103.078.18.103.077.026.155.077.232.103.077.026.18.052.257.052h.282c.103-.026.18-.052.258-.078a.6.6 0 0 0 .18-.18.196.196 0 0 0 .05-.128c.027-.052.027-.077.027-.129a.438.438 0 0 0 0-.257c0-.077-.026-.18-.026-.257-.026-.077-.026-.154-.052-.206-.025-.051-.025-.128-.051-.154-.026-.051-.026-.077-.026-.103v-.051l.026.025a.355.355 0 0 1 .077.103c.026.026.026.052.052.077.025.026.025.052.051.078.026.051.077.128.103.205.025.077.051.18.077.257.026.103.026.206.026.335a.643.643 0 0 1-.103.36.744.744 0 0 1-.283.283c-.103.077-.231.102-.36.128h-.18c-.051 0-.128 0-.18-.026-.102-.025-.205-.051-.308-.102a.897.897 0 0 1-.231-.155.6.6 0 0 1-.18-.18.538.538 0 0 1-.103-.154c0-.026-.026-.051-.026-.051 0-.026-.026-.026-.026-.052a.08.08 0 0 0 .026-.051z"/>
        </g>
        <g>
            <ellipse cx="2.823" cy="2.056" rx="1.466" ry="2.313" transform="rotate(-76.609 40.648 -4)"/>
            <path d="M38.452 32.143s-.025 0-.103-.026c-.05-.026-.154-.026-.257-.051-.102-.026-.23-.026-.385-.052-.154 0-.309 0-.488.026-.18.026-.386.051-.566.103a2.813 2.813 0 0 0-.591.231 2.058 2.058 0 0 0-.54.386c-.154.154-.308.334-.385.514-.103.18-.129.386-.129.592 0 .103.026.205.051.308.026.103.052.206.103.309.077.18.206.386.334.54.129.154.257.308.386.437.077.077.128.129.206.18.025.026.051.051.102.077l.078.077c.05.052.102.103.154.129.051.051.103.077.154.128a.843.843 0 0 0 .206.155.318.318 0 0 1 .077.051s-.026 0-.077-.026c-.052-.025-.129-.051-.232-.102a1.253 1.253 0 0 0-.18-.078c-.051-.025-.128-.051-.205-.102-.129-.078-.283-.155-.463-.283a3.458 3.458 0 0 1-.488-.412 2.78 2.78 0 0 1-.463-.591 2.079 2.079 0 0 1-.257-.797c-.026-.283.051-.592.18-.875a2.29 2.29 0 0 1 .54-.668c.102-.103.231-.18.334-.232a2.35 2.35 0 0 1 .36-.18c.231-.102.488-.154.72-.205.23-.026.462-.026.642-.026.206.026.385.051.54.103.154.051.282.103.385.154a.562.562 0 0 1 .129.077c.051.026.077.052.103.052 0 .051.025.077.025.077z"/>
        </g>
        <g>
            <path d="M59.17 39.214l.076.077c0 .258.026.438.103.643.231.695.746 1.826 1.928 4.809l.9.103c-.18 1.054-.412 2.288-.515 2.725l-.59.309c-.104-.54-.232-1.466-.412-2.366h-3.984c-.206.72-.54 1.723-.694 2.135l-.565.231c-.052-.874-.18-2.263-.18-3.034l.668-.077c.257-.592 1.182-2.675 1.928-4.552.025-.077.025-.128.025-.206l-.051-.205 1.362-.592zm-.977 5.555c.565 0 .976-.026 1.208-.103-.129-.36-.54-1.543-1.208-3.42h-.052c-.488 1.44-1.08 2.983-1.208 3.42.231.077.617.103 1.26.103zM65.93 40.114h.05c.9-.591 1.414-.797 1.723-.797 1.13 0 2.673 1.029 2.673 2.932 0 2.442-2.005 3.445-3.264 3.445-.206 0-.592-.128-1.08-.385l-.026.025c0 .849.026 1.723.052 2.109l1.285.386-.129.514c-.694 0-1.336-.026-2.03-.026-.591 0-1.157.026-1.748.026l.154-.566.643-.308c.026-.258.051-1.466.051-3.446v-3.549l-.77-.437.128-.437c.18-.051 1.619-.334 2.339-.334l-.052.848zm.076 4.5c.206.103.437.18.694.18.977 0 1.902-.848 1.902-2.263 0-1.285-.848-2.108-1.799-2.108-.231 0-.437.077-.77.257v3.934h-.027zM76.133 39.471c.36 0 .694.026 1.029.026.462 0 .925-.026 1.336-.026l-.128.489c-.334.154-.591.309-.849.463-.436.874-1.799 4.268-2.698 6.403-.18.771-.257 1.234-.386 1.748-.103.026-.206.052-.36.052-.565 0-1.156-.463-1.26-.695.104-.231.695-.9 1.363-1.517.18-.334.334-.668.437-.951-.154-.334-1.67-4.037-2.082-4.912-.103-.231-.231-.308-.951-.591l.154-.489c.54 0 1.054.026 1.594.026s1.028-.026 1.542-.026l-.103.515-.385.308c.231.695.642 1.723 1.156 3.112h.026c.308-.926.874-2.443 1.028-3.06l-.617-.36.154-.515zM80.323 40.371l-.797-.385.18-.489c.463 0 .951.026 1.414.026.565 0 1.157-.026 1.696-.026l-.154.54-.642.36v1.749c.437-.077.694-.206.925-.437.411-.412.72-.798 1.13-1.415l.104-.771c.308 0 .617.026.925.026.411 0 .848-.026 1.234-.026l-.206.54-1.08.437c-.616.591-1.053 1.08-1.259 1.286v.051c.18.334.386.643.566.9.565.823 1.388 2.006 2.004 2.777l-.23.232c-1.003 0-1.672-.103-2.237-.849-.309-.386-.668-.926-1.208-1.697-.309-.463-.36-.514-.668-.489 0 .746 0 1.672.025 1.955l.848.385-.154.489c-.514 0-1.054-.026-1.568-.026-.59 0-1.156.026-1.747.026l.18-.489.745-.385c0-.257.026-1.157.026-2.289v-2.006h-.052zM91.17 41.503c.026-1.08-.643-1.337-1.157-1.337-.282 0-.54.077-.694.154-.077.54-.18 1.209-.282 1.491l-.155.103c-.154-.051-.925-.72-1.105-1.285.437-.386 1.26-.849 1.954-1.08.36-.129.642-.206.925-.206 1.696 0 2.185 1.234 2.185 2.057 0 .977-.026 2.109-.026 2.931.129.258.617.566 1.028.669l-.103.283a1.838 1.838 0 0 1-1.156.411c-.874 0-1.234-.385-1.363-.694h-.025c-.669.514-1.157.72-1.594.72-1.157 0-1.825-.951-1.825-1.723 0-.591.206-.951.591-1.157.463-.257 1.851-.72 2.802-.977v-.36zm-1.696 2.186c0 .694.565.951.976.951a.83.83 0 0 0 .54-.206c.103-.077.129-.18.129-.334l.025-1.671c-.411.128-.9.334-1.208.514-.334.231-.462.437-.462.746zM97.467 40.114h.052c.9-.591 1.413-.797 1.722-.797 1.13 0 2.673 1.029 2.673 2.932 0 2.442-2.005 3.445-3.264 3.445-.206 0-.592-.128-1.08-.385l-.026.025c0 .849.026 1.723.052 2.109l1.285.386-.129.514c-.694 0-1.336-.026-2.03-.026-.591 0-1.157.026-1.748.026l.154-.566.643-.308c.026-.258.051-1.466.051-3.446v-3.549l-.77-.437.128-.437c.18-.051 1.619-.334 2.339-.334l-.052.848zm.077 4.5c.206.103.437.18.694.18.977 0 1.902-.848 1.902-2.263 0-1.285-.848-2.108-1.799-2.108-.231 0-.437.077-.77.257v3.934h-.027zM108.134 41.94v-1.62l-.565-.309.154-.54c.463 0 .925.026 1.362.026.566 0 1.08-.026 1.62-.026l-.155.54-.694.309v2.083c0 1.183 0 1.903.026 2.211l.9.386-.155.514c-.565 0-1.13-.025-1.722-.025-.488 0-.976.025-1.49.025l.154-.514.565-.36c0-.334.026-1.054.026-1.954-.617.103-1.234.103-2.108.103 0 .797 0 1.491.026 1.851l.591.36-.18.514c-.437 0-.9-.025-1.336-.025-.592 0-1.157.025-1.722.025l.154-.514.745-.386c.026-.257.026-1.157.026-2.237v-2.031l-.797-.36.18-.489c.463 0 .951.026 1.44.026.513 0 1.002-.026 1.49-.026l-.154.54-.411.334v1.62h2.03v-.051zM118.184 42.48c0 .977 0 1.62.026 2.134l.848.36-.154.515c-.54 0-1.08-.026-1.62-.026s-1.079.026-1.67.026l.154-.515.72-.36c0-.36.026-1.003.026-1.748-.489 0-.772.128-1.054.514a35.762 35.762 0 0 1-1.08 1.671c-.437.463-1.285.669-2.313.618l-.18-.258c.54-.514 1.388-1.517 1.62-1.851.308-.437.719-.771 1.207-.874v-.052c-1.67-.154-1.876-.977-1.876-1.568 0-1.183 1.054-1.697 3.419-1.697 1.053 0 2.133.077 2.853.154l-.155.488-.77.335v2.134zm-1.67-2.494h-.257c-.977 0-1.568.283-1.568 1.08 0 .72.565 1.183 1.542 1.183h.308v-2.263h-.025z"/>
        </g>
        <g>
            <path d="M64.07 21.023c3.313 0 7.614 1.96 7.69 6.72.076 4.924-4.124 7.094-7.741 7.094-3.592 0-7.791-2.147-7.791-6.79.025-4.364 3.971-7.024 7.842-7.024zm-.304 1.004c-2.732 0-4.25 2.496-4.25 5.693 0 3.173 1.746 6.16 4.756 6.16 3.238 0 4.2-3.173 4.2-5.88.024-2.683-1.595-5.973-4.706-5.973zM75.402 22.703l-1.644-.606.278-.724c.936 0 1.872.024 2.808.024 1.037 0 2.05-.024 3.086-.024l-.227.747-1.442.607v4.736c1.113-.303 1.391-.466 1.745-.816.936-.934 2.378-2.59 3.491-4.084l.076-1.166c.506 0 1.063.023 1.594.023.885 0 1.745-.023 2.605-.023l-.253.746-2.479.747c-1.34 1.307-2.858 2.893-3.642 3.85l-.026.047c.177.303.456.653.81 1.12a182.92 182.92 0 0 0 5.413 6.556l-.329.327c-1.872 0-3.06-.35-4.047-1.377-.961-1.003-2.277-2.683-3.693-4.433-.48-.607-.784-.747-1.265-.607 0 2.707.076 4.55.101 4.76l1.923.607-.33.747c-1.036 0-2.074-.024-3.161-.024-1.113 0-2.252.024-3.34.024l.228-.747 1.569-.607c.075-.233.126-2.146.126-5.483v-4.947h.025zM100.471 21.397c.658-.094 1.72-.257 2.2-.304l.102.117c-.076.607-.506 2.94-.708 3.593l-.456.14c-.202-.396-.96-1.936-1.188-2.566l-3.087.116v4.667c0 4.923.076 5.39.127 5.903l2.58.63-.278.747c-1.24 0-2.53-.023-3.795-.023-1.315 0-2.63.023-3.971.023l.228-.77 2.175-.607c.076-.606.076-1.306.076-5.25V22.47l-2.91-.117c-.43.677-1.163 1.774-1.669 2.357l-.506.117c-.05-.607-.025-3.034.076-3.664l.152-.093c.38 0 1.568.21 2.024.303h8.828v.024zM112.082 21.023c3.314 0 7.614 1.96 7.69 6.72.076 4.924-4.123 7.094-7.74 7.094-3.592 0-7.792-2.147-7.792-6.79 0-4.364 3.972-7.024 7.842-7.024zm-.303 1.004c-2.732 0-4.25 2.496-4.25 5.693 0 3.173 1.745 6.16 4.756 6.16 3.238 0 4.199-3.173 4.199-5.88.025-2.683-1.594-5.973-4.705-5.973z"/>
        </g>
        <g>
            <path d="M49.314 10.12v.32h-1.371v2.52H47.4v-2.52h-1.371v-.32zM49.771 10.12h.743l1.315 2.42 1.257-2.42h.743v2.84h-.515v-2.38l-1.285 2.38h-.458l-1.285-2.38v2.38h-.515v-2.84z"/>
        </g>
    </g>
</svg>
