<svg xmlns="http://www.w3.org/2000/svg" width="777" height="208" viewBox="0 0 777 208">
    <path fill="#FFF" fill-rule="nonzero" d="M42.408 75.872L41.544 65H8.64l-.864 10.872H0V57.08h5.256c3.408-8.496 5.568-18.96 6.48-31.392.24-3.12 1.392-5.628 3.456-7.524s4.776-2.844 8.136-2.844h20.376v41.76h6.48v18.792h-7.776zM32.76 57.08V23.24h-6.408c-1.44 0-2.484.324-3.132.972-.648.648-1.02 1.74-1.116 3.276-.576 6.96-1.344 12.672-2.304 17.136-.96 4.464-2.376 8.616-4.248 12.456H32.76zM67.008 65H53.832l19.8-50.976h12.6L106.464 65H93L80.04 31.016 67.008 65zm74.178-25.92v.288c3.696.336 6.324 1.596 7.884 3.78 1.56 2.184 2.34 5.34 2.34 9.468 0 4.992-1.272 8.4-3.816 10.224-2.544 1.824-6.864 2.736-12.96 2.736-9.168 0-16.176-.192-21.024-.576V15.32c4.32-.384 10.56-.576 18.72-.576 6.576 0 11.136.9 13.68 2.7 2.544 1.8 3.816 5.22 3.816 10.26 0 3.6-.672 6.324-2.016 8.172-1.344 1.848-3.552 2.916-6.624 3.204zm-16.848-3.456h8.064c2.64 0 4.452-.432 5.436-1.296.984-.864 1.476-2.568 1.476-5.112 0-2.496-.516-4.152-1.548-4.968-1.032-.816-3.036-1.224-6.012-1.224l-7.416-.072v12.672zm0 21.672h8.352c3.072 0 5.136-.444 6.192-1.332 1.056-.888 1.584-2.7 1.584-5.436 0-2.976-.552-4.98-1.656-6.012-1.104-1.032-3.216-1.572-6.336-1.62h-8.136v14.4zM169.717 65H156.54l19.8-50.976h12.6L209.173 65h-13.464l-12.96-33.984L169.717 65zM241.879.56h7.056c.384 3.072-.504 5.7-2.664 7.884s-5.184 3.276-9.072 3.276c-3.888 0-6.936-1.092-9.144-3.276-2.208-2.184-3.12-4.812-2.736-7.884h7.056c-.192 3.936 1.416 5.904 4.824 5.904 3.312 0 4.872-1.968 4.68-5.904zM257.215 65h-10.512V35.336c0-2.208.216-4.44.648-6.696h-.504a40.789 40.789 0 0 1-2.808 6.552L227.263 65H216.39V15.32h10.44v29.16c0 2.064-.192 4.368-.576 6.912h.432c.624-1.824 1.584-3.984 2.88-6.48l16.776-29.592h10.872V65zm50.202-40.752h-14.832V65h-11.016V24.248h-14.832V15.32h40.68v8.928zm42.498 32.184l.432 8.064c-4.464.48-12.144.72-23.04.72-3.312 0-5.952-.9-7.92-2.7-1.968-1.8-2.952-4.236-2.952-7.308V25.112c0-3.072.996-5.508 2.988-7.308 1.992-1.8 4.62-2.7 7.884-2.7 10.896 0 18.576.24 23.04.72l-.432 8.136h-19.152c-1.2 0-2.064.288-2.592.864-.528.576-.792 1.512-.792 2.808v7.56h19.8v7.92h-19.8v9.576c0 1.344.264 2.304.792 2.88.528.576 1.392.864 2.592.864h19.152zM380.12 65V15.32c4.464-.432 10.776-.648 18.936-.648 6.912 0 11.652 1.128 14.22 3.384 2.568 2.256 3.852 6.528 3.852 12.816 0 6.288-1.212 10.572-3.636 12.852-2.424 2.28-6.756 3.42-12.996 3.42-3.168 0-6.288-.192-9.36-.576V65H380.12zm11.016-26.28h7.632c2.88-.048 4.824-.6 5.832-1.656s1.512-3.12 1.512-6.192-.504-5.136-1.512-6.192-2.952-1.584-5.832-1.584l-7.632.072V38.72zM434.57 65h-13.176l19.8-50.976h12.6L474.026 65h-13.464l-12.96-33.984L434.57 65zm80.73-9.288l.936 8.136c-4.32 1.344-9.624 2.016-15.912 2.016-7.68 0-13.08-1.92-16.2-5.76-3.12-3.84-4.68-10.488-4.68-19.944s1.56-16.104 4.68-19.944c3.12-3.84 8.52-5.76 16.2-5.76 5.568 0 10.536.552 14.904 1.656l-.936 8.208c-3.888-.24-8.544-.36-13.968-.36-3.6 0-6.06 1.14-7.38 3.42-1.32 2.28-1.98 6.54-1.98 12.78 0 6.24.66 10.5 1.98 12.78 1.32 2.28 3.78 3.42 7.38 3.42 6.672 0 11.664-.216 14.976-.648zM548.8 38.936v.288c.912.144 1.752.3 2.52.468.768.168 1.5.444 2.196.828.696.384 1.308.72 1.836 1.008.528.288 1.068.804 1.62 1.548a41.451 41.451 0 0 0 1.368 1.764c.36.432.792 1.224 1.296 2.376s.9 2.052 1.188 2.7c.288.648.708 1.788 1.26 3.42s.972 2.892 1.26 3.78c.288.888.768 2.388 1.44 4.5a421.2 421.2 0 0 1 1.08 3.384h-11.448c-2.688-8.784-4.512-14.16-5.472-16.128-1.488-3.024-3.36-4.824-5.616-5.4-.864-.24-1.848-.36-2.952-.36h-3.528c.384 1.776.576 3.36.576 4.752V65h-10.944V15.32h10.944v14.04c0 1.872-.192 3.84-.576 5.904h3.384c3.408 0 5.868-1.296 7.38-3.888 1.512-2.592 3.372-7.704 5.58-15.336.096-.336.168-.576.216-.72h11.16c-2.688 8.448-4.392 13.464-5.112 15.048-1.68 3.744-3.792 6.216-6.336 7.416-1.2.528-2.64.912-4.32 1.152zM575.385 65V15.32c4.464-.432 10.776-.648 18.936-.648 6.912 0 11.652 1.128 14.22 3.384 2.568 2.256 3.852 6.528 3.852 12.816 0 6.288-1.212 10.572-3.636 12.852-2.424 2.28-6.756 3.42-12.996 3.42-3.168 0-6.288-.192-9.36-.576V65h-11.016zM586.4 38.72h7.632c2.88-.048 4.824-.6 5.832-1.656s1.512-3.12 1.512-6.192-.504-5.136-1.512-6.192-2.952-1.584-5.832-1.584l-7.632.072V38.72zm39.258-18.792c3.12-3.696 8.664-5.544 16.632-5.544 7.968 0 13.512 1.836 16.632 5.508 3.12 3.672 4.68 10.428 4.68 20.268s-1.56 16.596-4.68 20.268c-3.12 3.672-8.664 5.508-16.632 5.508-7.968 0-13.5-1.836-16.596-5.508-3.096-3.672-4.644-10.428-4.644-20.268s1.536-16.584 4.608-20.232zm24.264 6.84c-1.344-2.352-3.888-3.528-7.632-3.528-3.744 0-6.3 1.176-7.668 3.528-1.368 2.352-2.052 6.816-2.052 13.392s.684 11.04 2.052 13.392c1.368 2.352 3.924 3.528 7.668 3.528s6.3-1.176 7.668-3.528c1.368-2.352 2.052-6.816 2.052-13.392s-.696-11.04-2.088-13.392zm58.194 29.664l.432 8.064c-4.464.48-12.144.72-23.04.72-3.312 0-5.952-.9-7.92-2.7-1.968-1.8-2.952-4.236-2.952-7.308V25.112c0-3.072.996-5.508 2.988-7.308 1.992-1.8 4.62-2.7 7.884-2.7 10.896 0 18.576.24 23.04.72l-.432 8.136h-19.152c-1.2 0-2.064.288-2.592.864-.528.576-.792 1.512-.792 2.808v7.56h19.8v7.92h-19.8v9.576c0 1.344.264 2.304.792 2.88.528.576 1.392.864 2.592.864h19.152zm51.499-41.112H770.2c2.592 0 3.96 1.368 4.104 4.104L776.176 65h-10.368l-1.584-41.112h-1.296l-7.488 30.744c-.48 2.352-1.944 3.528-4.392 3.528h-7.2c-2.448 0-3.96-1.176-4.536-3.528l-7.56-30.744h-1.224L729.088 65h-10.296l1.8-45.576c.096-2.736 1.464-4.104 4.104-4.104h10.584c2.304 0 3.744 1.176 4.32 3.528l6.048 24.768c.192.96.444 2.304.756 4.032.312 1.728.492 2.712.54 2.952h.936c.048-.24.228-1.224.54-2.952.312-1.728.564-3.072.756-4.032l5.976-24.768c.528-2.352 2.016-3.528 4.464-3.528zM31.464 110.08v.288c3.696.336 6.324 1.596 7.884 3.78 1.56 2.184 2.34 5.34 2.34 9.468 0 4.992-1.272 8.4-3.816 10.224-2.544 1.824-6.864 2.736-12.96 2.736-9.168 0-16.176-.192-21.024-.576V86.32c4.32-.384 10.56-.576 18.72-.576 6.576 0 11.136.9 13.68 2.7 2.544 1.8 3.816 5.22 3.816 10.26 0 3.6-.672 6.324-2.016 8.172-1.344 1.848-3.552 2.916-6.624 3.204zm-16.848-3.456h8.064c2.64 0 4.452-.432 5.436-1.296.984-.864 1.476-2.568 1.476-5.112 0-2.496-.516-4.152-1.548-4.968-1.032-.816-3.036-1.224-6.012-1.224l-7.416-.072v12.672zm0 21.672h8.352c3.072 0 5.136-.444 6.192-1.332 1.056-.888 1.584-2.7 1.584-5.436 0-2.976-.552-4.98-1.656-6.012-1.104-1.032-3.216-1.572-6.336-1.62h-8.136v14.4zm41.202-37.368c3.12-3.696 8.664-5.544 16.632-5.544 7.968 0 13.512 1.836 16.632 5.508 3.12 3.672 4.68 10.428 4.68 20.268s-1.56 16.596-4.68 20.268c-3.12 3.672-8.664 5.508-16.632 5.508-7.968 0-13.5-1.836-16.596-5.508-3.096-3.672-4.644-10.428-4.644-20.268s1.536-16.584 4.608-20.232zm24.264 6.84c-1.344-2.352-3.888-3.528-7.632-3.528-3.744 0-6.3 1.176-7.668 3.528-1.368 2.352-2.052 6.816-2.052 13.392s.684 11.04 2.052 13.392c1.368 2.352 3.924 3.528 7.668 3.528s6.3-1.176 7.668-3.528c1.368-2.352 2.052-6.816 2.052-13.392s-.696-11.04-2.088-13.392zm23.419-2.736l-.864-7.92c4.32-.912 9.575-1.368 15.768-1.368 6.432 0 10.895.9 13.392 2.7 2.496 1.8 3.744 5.22 3.744 10.26 0 3.6-.672 6.324-2.016 8.172-1.344 1.848-3.504 2.916-6.48 3.204v.288c3.6.336 6.168 1.596 7.704 3.78 1.536 2.184 2.304 5.34 2.304 9.468 0 4.944-1.248 8.34-3.744 10.188-2.497 1.848-6.72 2.772-12.672 2.772-7.68 0-14.016-.72-19.008-2.16l.792-7.56c5.76.912 11.135 1.368 16.128 1.368 2.832 0 4.74-.444 5.724-1.332.984-.888 1.476-2.676 1.476-5.364 0-2.88-.516-4.824-1.548-5.832s-3.012-1.56-5.94-1.656h-9.576v-7.704h9.504c2.496 0 4.2-.42 5.112-1.26.912-.84 1.368-2.46 1.368-4.86 0-2.448-.492-4.08-1.476-4.896-.984-.816-2.82-1.224-5.508-1.224-3.745 0-8.472.312-14.184.936zm84.834-8.712h10.584c2.592 0 3.96 1.368 4.104 4.104L204.895 136h-10.368l-1.584-41.112h-1.296l-7.488 30.744c-.48 2.352-1.944 3.528-4.392 3.528h-7.2c-2.448 0-3.96-1.176-4.536-3.528l-7.56-30.744h-1.224L157.807 136H147.51l1.8-45.576c.096-2.736 1.464-4.104 4.104-4.104h10.584c2.304 0 3.744 1.176 4.32 3.528l6.048 24.768c.192.96.444 2.304.756 4.032.312 1.728.492 2.712.54 2.952h.936c.048-.24.228-1.224.54-2.952.312-1.728.564-3.072.756-4.032l5.976-24.768c.528-2.352 2.016-3.528 4.464-3.528zm31.77 4.608c3.12-3.696 8.664-5.544 16.632-5.544 7.968 0 13.512 1.836 16.632 5.508 3.12 3.672 4.68 10.428 4.68 20.268s-1.56 16.596-4.68 20.268c-3.12 3.672-8.664 5.508-16.632 5.508-7.968 0-13.5-1.836-16.596-5.508-3.096-3.672-4.644-10.428-4.644-20.268s1.536-16.584 4.608-20.232zm24.264 6.84c-1.344-2.352-3.888-3.528-7.632-3.528-3.744 0-6.3 1.176-7.668 3.528-1.368 2.352-2.052 6.816-2.052 13.392s.684 11.04 2.052 13.392c1.368 2.352 3.924 3.528 7.668 3.528s6.3-1.176 7.668-3.528c1.368-2.352 2.052-6.816 2.052-13.392s-.696-11.04-2.088-13.392zm68.778 12.168v.288c4.368.576 7.428 2.28 9.18 5.112 1.752 2.832 4.068 8.976 6.948 18.432.336.96.576 1.704.72 2.232h-11.52c-3.024-9.216-4.944-14.736-5.76-16.56-1.392-2.88-3.048-4.56-4.968-5.04-.624-.192-1.32-.288-2.088-.288h-3.312c.384 1.776.576 3.36.576 4.752V136h-10.512v-17.136c0-1.392.192-2.976.576-4.752h-3.528c-2.64 0-4.608 1.14-5.904 3.42-1.296 2.28-3.192 7.236-5.688 14.868-.48 1.536-.864 2.736-1.152 3.6h-11.52c2.88-9.36 4.848-15.144 5.904-17.352 1.68-3.696 3.864-6.12 6.552-7.272 1.2-.528 2.664-.912 4.392-1.152v-.288c-1.2-.144-2.292-.408-3.276-.792-.984-.384-1.836-.792-2.556-1.224-.72-.432-1.416-1.128-2.088-2.088a51.178 51.178 0 0 1-1.692-2.556c-.456-.744-.984-1.944-1.584-3.6a117.63 117.63 0 0 1-1.44-4.176c-.36-1.128-.9-2.868-1.62-5.22a478.986 478.986 0 0 0-1.224-3.96h11.16c2.592 8.16 4.368 13.176 5.328 15.048 1.968 3.072 4.104 4.704 6.408 4.896h3.528c-.384-2.064-.576-4.032-.576-5.904V86.32h10.512v14.04c0 1.872-.192 3.84-.576 5.904h3.24c2.544 0 4.464-1.176 5.76-3.528 1.296-2.352 3.072-7.008 5.328-13.968.336-1.056.6-1.872.792-2.448h11.16c-2.64 8.448-4.344 13.536-5.112 15.264-1.632 3.696-3.744 6.12-6.336 7.272-1.152.528-2.496.888-4.032 1.08zm65.899-23.616V136H368.03v-22.176h-17.496V136H339.59V86.32h10.944v19.008h17.496V86.32h11.016zm16.218 4.608c3.12-3.696 8.664-5.544 16.632-5.544 7.968 0 13.512 1.836 16.632 5.508 3.12 3.672 4.68 10.428 4.68 20.268s-1.56 16.596-4.68 20.268c-3.12 3.672-8.664 5.508-16.632 5.508-7.968 0-13.5-1.836-16.596-5.508-3.096-3.672-4.644-10.428-4.644-20.268s1.536-16.584 4.608-20.232zm24.264 6.84c-1.344-2.352-3.888-3.528-7.632-3.528-3.744 0-6.3 1.176-7.668 3.528-1.368 2.352-2.052 6.816-2.052 13.392s.684 11.04 2.052 13.392c1.368 2.352 3.924 3.528 7.668 3.528s6.3-1.176 7.668-3.528c1.368-2.352 2.052-6.816 2.052-13.392s-.696-11.04-2.088-13.392zm59.274 28.944l.936 8.136c-4.32 1.344-9.624 2.016-15.912 2.016-7.68 0-13.08-1.92-16.2-5.76-3.12-3.84-4.68-10.488-4.68-19.944s1.56-16.104 4.68-19.944c3.12-3.84 8.52-5.76 16.2-5.76 5.568 0 10.536.552 14.904 1.656l-.936 8.208c-3.888-.24-8.544-.36-13.968-.36-3.6 0-6.06 1.14-7.38 3.42-1.32 2.28-1.98 6.54-1.98 12.78 0 6.24.66 10.5 1.98 12.78 1.32 2.28 3.78 3.42 7.38 3.42 6.672 0 11.664-.216 14.976-.648zm47.97-31.464H511.94V136h-11.016V95.248h-14.832V86.32h40.68v8.928zM577.12 136h-10.512v-29.664c0-2.208.216-4.44.648-6.696h-.504a40.789 40.789 0 0 1-2.808 6.552L547.167 136h-10.872V86.32h10.44v29.16c0 2.064-.192 4.368-.576 6.912h.432c.624-1.824 1.584-3.984 2.88-6.48l16.776-29.592h10.872V136zM31.464 181.08v.288c3.696.336 6.324 1.596 7.884 3.78 1.56 2.184 2.34 5.34 2.34 9.468 0 4.992-1.272 8.4-3.816 10.224-2.544 1.824-6.864 2.736-12.96 2.736-9.168 0-16.176-.192-21.024-.576v-49.68c4.32-.384 10.56-.576 18.72-.576 6.576 0 11.136.9 13.68 2.7 2.544 1.8 3.816 5.22 3.816 10.26 0 3.6-.672 6.324-2.016 8.172-1.344 1.848-3.552 2.916-6.624 3.204zm-16.848-3.456h8.064c2.64 0 4.452-.432 5.436-1.296.984-.864 1.476-2.568 1.476-5.112 0-2.496-.516-4.152-1.548-4.968-1.032-.816-3.036-1.224-6.012-1.224l-7.416-.072v12.672zm0 21.672h8.352c3.072 0 5.136-.444 6.192-1.332 1.056-.888 1.584-2.7 1.584-5.436 0-2.976-.552-4.98-1.656-6.012-1.104-1.032-3.216-1.572-6.336-1.62h-8.136v14.4zM59.994 207H46.818l19.8-50.976h12.6L99.45 207H85.986l-12.96-33.984L59.994 207zm106.219-49.68V207h-59.544v-49.68h10.728v41.76h13.68v-41.76h10.728v41.76h13.68v-41.76h10.728zm46.386 41.112l.432 8.064c-4.464.48-12.144.72-23.04.72-3.312 0-5.952-.9-7.92-2.7-1.968-1.8-2.952-4.236-2.952-7.308v-30.096c0-3.072.996-5.508 2.988-7.308 1.992-1.8 4.62-2.7 7.884-2.7 10.896 0 18.576.24 23.04.72l-.432 8.136h-19.152c-1.2 0-2.064.288-2.592.864-.528.576-.792 1.512-.792 2.808v7.56h19.8v7.92h-19.8v9.576c0 1.344.264 2.304.792 2.88.528.576 1.392.864 2.592.864h19.152zM223.993 207v-39.312c0-3.12.984-5.664 2.952-7.632s4.464-2.952 7.488-2.952c10.368 0 17.712.264 22.032.792l-.504 8.064h-17.064c-1.392 0-2.388.3-2.988.9-.6.6-.9 1.62-.9 3.06V207h-11.016zm43.938-45.072c3.12-3.696 8.664-5.544 16.632-5.544 7.968 0 13.512 1.836 16.632 5.508 3.12 3.672 4.68 10.428 4.68 20.268s-1.56 16.596-4.68 20.268c-3.12 3.672-8.664 5.508-16.632 5.508-7.968 0-13.5-1.836-16.596-5.508-3.096-3.672-4.644-10.428-4.644-20.268s1.536-16.584 4.608-20.232zm24.264 6.84c-1.344-2.352-3.888-3.528-7.632-3.528-3.744 0-6.3 1.176-7.668 3.528-1.368 2.352-2.052 6.816-2.052 13.392s.684 11.04 2.052 13.392c1.368 2.352 3.924 3.528 7.668 3.528s6.3-1.176 7.668-3.528c1.368-2.352 2.052-6.816 2.052-13.392s-.696-11.04-2.088-13.392zm54.829 8.712h7.56c6.864 0 11.64 1.092 14.328 3.276 2.688 2.184 4.032 6.132 4.032 11.844 0 3.216-.36 5.832-1.08 7.848-.72 2.016-1.92 3.54-3.6 4.572-1.68 1.032-3.552 1.728-5.616 2.088-2.064.36-4.776.54-8.136.54-6.912 0-12.984-.216-18.216-.648h-.288v-49.68a271.597 271.597 0 0 1 16.92-.504c4.8 0 10.44.168 16.92.504l-.864 8.424h-21.96v11.736zm0 21.744h7.56c3.024 0 5.004-.456 5.94-1.368.936-.912 1.404-2.808 1.404-5.688 0-2.832-.468-4.74-1.404-5.724-.936-.984-2.916-1.476-5.94-1.476h-7.56v14.256zm77.49 7.776h-10.512v-29.664c0-2.208.216-4.44.648-6.696h-.504a40.789 40.789 0 0 1-2.808 6.552L394.562 207H383.69v-49.68h10.44v29.16c0 2.064-.192 4.368-.576 6.912h.432c.624-1.824 1.584-3.984 2.88-6.48l16.776-29.592h10.872V207zm12.186-40.968l-.864-7.92c4.32-.912 9.576-1.368 15.768-1.368 6.432 0 10.896.9 13.392 2.7 2.496 1.8 3.744 5.22 3.744 10.26 0 3.6-.672 6.324-2.016 8.172-1.344 1.848-3.504 2.916-6.48 3.204v.288c3.6.336 6.168 1.596 7.704 3.78 1.536 2.184 2.304 5.34 2.304 9.468 0 4.944-1.248 8.34-3.744 10.188-2.496 1.848-6.72 2.772-12.672 2.772-7.68 0-14.016-.72-19.008-2.16l.792-7.56c5.76.912 11.136 1.368 16.128 1.368 2.832 0 4.74-.444 5.724-1.332.984-.888 1.476-2.676 1.476-5.364 0-2.88-.516-4.824-1.548-5.832s-3.012-1.56-5.94-1.656h-9.576v-7.704h9.504c2.496 0 4.2-.42 5.112-1.26.912-.84 1.368-2.46 1.368-4.86 0-2.448-.492-4.08-1.476-4.896-.984-.816-2.82-1.224-5.508-1.224-3.744 0-8.472.312-14.184.936zm84.403-8.712V207h-11.016v-22.176H492.59V207h-10.944v-49.68h10.944v19.008h17.496V157.32h11.016zm46.386 41.112l.432 8.064c-4.464.48-12.144.72-23.04.72-3.312 0-5.952-.9-7.92-2.7-1.968-1.8-2.952-4.236-2.952-7.308v-30.096c0-3.072.996-5.508 2.988-7.308 1.992-1.8 4.62-2.7 7.884-2.7 10.896 0 18.576.24 23.04.72l-.432 8.136h-19.152c-1.2 0-2.064.288-2.592.864-.528.576-.792 1.512-.792 2.808v7.56h19.8v7.92h-19.8v9.576c0 1.344.264 2.304.792 2.88.528.576 1.392.864 2.592.864h19.152zm45.162-.72l.936 8.136c-4.32 1.344-9.624 2.016-15.912 2.016-7.68 0-13.08-1.92-16.2-5.76-3.12-3.84-4.68-10.488-4.68-19.944s1.56-16.104 4.68-19.944c3.12-3.84 8.52-5.76 16.2-5.76 5.568 0 10.536.552 14.904 1.656l-.936 8.208c-3.888-.24-8.544-.36-13.968-.36-3.6 0-6.06 1.14-7.38 3.42-1.32 2.28-1.98 6.54-1.98 12.78 0 6.24.66 10.5 1.98 12.78 1.32 2.28 3.78 3.42 7.38 3.42 6.672 0 11.664-.216 14.976-.648zM630.813 207h-13.176l19.8-50.976h12.6L670.27 207h-13.464l-12.96-33.984L630.813 207zm57.547-30.6l-1.08 14.832h-8.352l-1.152-14.832v-19.44h10.584v19.44zm-6.48 19.728h2.448c1.392 0 2.364.264 2.916.792s.828 1.488.828 2.88v3.456c0 1.392-.276 2.364-.828 2.916-.552.552-1.524.828-2.916.828h-2.448c-1.392 0-2.364-.276-2.916-.828-.552-.552-.828-1.524-.828-2.916V199.8c0-1.392.276-2.352.828-2.88.552-.528 1.524-.792 2.916-.792zM80 65a6 6 0 1 1 0-12 6 6 0 0 1 0 12zm103 0a6 6 0 1 1 0-12 6 6 0 0 1 0 12zm265 0a6 6 0 1 1 0-12 6 6 0 0 1 0 12zM73 207a6 6 0 1 1 0-12 6 6 0 0 1 0 12zm571 0a6 6 0 1 1 0-12 6 6 0 0 1 0 12z"/>
</svg>
